<?xml version="1.0" encoding="UTF-8" standalone="no"?>
<svg
   xmlns:dc="http://purl.org/dc/elements/1.1/"
   xmlns:cc="http://creativecommons.org/ns#"
   xmlns:rdf="http://www.w3.org/1999/02/22-rdf-syntax-ns#"
   xmlns:svg="http://www.w3.org/2000/svg"
   xmlns="http://www.w3.org/2000/svg"
   xmlns:sodipodi="http://sodipodi.sourceforge.net/DTD/sodipodi-0.dtd"
   xmlns:inkscape="http://www.inkscape.org/namespaces/inkscape"
   version="1.1"
   width="24"
   height="24"
   viewBox="0 0 24 24"
   id="svg72"
   sodipodi:docname="component-refresh.svg"
   inkscape:version="1.0.2 (e86c870879, 2021-01-15, custom)">
  <metadata
     id="metadata78">
    <rdf:RDF>
      <cc:Work
         rdf:about="">
        <dc:format>image/svg+xml</dc:format>
        <dc:type
           rdf:resource="http://purl.org/dc/dcmitype/StillImage" />
        <dc:title />
      </cc:Work>
    </rdf:RDF>
  </metadata>
  <defs
     id="defs76" />
  <sodipodi:namedview
     pagecolor="#ffffff"
     bordercolor="#666666"
     borderopacity="1"
     objecttolerance="10"
     gridtolerance="10"
     guidetolerance="10"
     inkscape:pageopacity="0"
     inkscape:pageshadow="2"
     inkscape:window-width="1920"
     inkscape:window-height="1010"
     id="namedview74"
     showgrid="false"
     inkscape:zoom="4.2708333"
     inkscape:cx="6.3658537"
     inkscape:cy="12"
     inkscape:window-x="-7"
     inkscape:window-y="-7"
     inkscape:window-maximized="1"
     inkscape:current-layer="svg72"
     inkscape:document-rotation="0" />
  <path
     id="path70"
     d="M 4 6 L 4 19 L 13.265625 19 L 13.265625 17 L 6 17 L 6 8 L 18 8 L 18 14.634766 L 20 14.634766 L 20 6 L 4 6 z " />
  <path
     d="M 18.365797,16.053726 C 17.971468,15.659397 17.430284,15.41464 16.829273,15.41464 a 2.1756097,2.1756097 0 0 0 -2.17561,2.17561 2.1756097,2.1756097 0 0 0 2.17561,2.175609 c 1.014378,0 1.860145,-0.693475 2.102183,-1.631707 h -0.565659 c -0.223,0.633646 -0.826732,1.087805 -1.536524,1.087805 a 1.6317072,1.6317072 0 0 1 -1.631708,-1.631707 1.6317072,1.6317072 0 0 1 1.631708,-1.631708 c 0.451438,0 0.853927,0.187646 1.147634,0.484073 l -0.875684,0.875683 h 1.903659 V 15.41464 Z"
     id="path19"
     style="stroke-width:0.271951" />
</svg>
