<?xml version="1.0" encoding="UTF-8" standalone="no"?>
<svg
   xmlns:dc="http://purl.org/dc/elements/1.1/"
   xmlns:cc="http://creativecommons.org/ns#"
   xmlns:rdf="http://www.w3.org/1999/02/22-rdf-syntax-ns#"
   xmlns:svg="http://www.w3.org/2000/svg"
   xmlns="http://www.w3.org/2000/svg"
   xmlns:sodipodi="http://sodipodi.sourceforge.net/DTD/sodipodi-0.dtd"
   xmlns:inkscape="http://www.inkscape.org/namespaces/inkscape"
   version="1.1"
   width="24"
   height="24"
   viewBox="0 0 24 24"
   id="svg1162"
   sodipodi:docname="connector-remove.svg"
   inkscape:version="1.0.2 (e86c870879, 2021-01-15, custom)">
  <metadata
     id="metadata1168">
    <rdf:RDF>
      <cc:Work
         rdf:about="">
        <dc:format>image/svg+xml</dc:format>
        <dc:type
           rdf:resource="http://purl.org/dc/dcmitype/StillImage" />
        <dc:title />
      </cc:Work>
    </rdf:RDF>
  </metadata>
  <defs
     id="defs1166" />
  <sodipodi:namedview
     pagecolor="#ffffff"
     bordercolor="#666666"
     borderopacity="1"
     objecttolerance="10"
     gridtolerance="10"
     guidetolerance="10"
     inkscape:pageopacity="0"
     inkscape:pageshadow="2"
     inkscape:window-width="1920"
     inkscape:window-height="1010"
     id="namedview1164"
     showgrid="false"
     inkscape:zoom="24.896051"
     inkscape:cx="12"
     inkscape:cy="12"
     inkscape:window-x="-7"
     inkscape:window-y="-7"
     inkscape:window-maximized="1"
     inkscape:current-layer="svg1162"
     inkscape:document-rotation="0" />
  <path
     id="path1160"
     d="M 11 5 A 8 8 0 0 0 3 13 A 8 8 0 0 0 11 21 A 8 8 0 0 0 19 13 L 17 13 A 6 6 0 0 1 11 19 A 6 6 0 0 1 5 13 A 6 6 0 0 1 11 7 L 11 5 z M 17 9.9980469 L 17 10 L 19 10 L 19 9.9980469 L 17 9.9980469 z " />
  <path
     d="M 21.212819,4.1998028 20.506508,3.4934918 17.706311,6.29369 14.906112,3.4934918 14.199801,4.1998028 17,7 l -2.800199,2.8002 0.706311,0.706311 2.800199,-2.8002 2.800197,2.8002 L 21.212819,9.8002 18.412621,7 Z"
     id="path41"
     style="stroke-width:0.50093" />
</svg>
