<?xml version="1.0" encoding="UTF-8" standalone="no"?>
<svg
   xmlns:dc="http://purl.org/dc/elements/1.1/"
   xmlns:cc="http://creativecommons.org/ns#"
   xmlns:rdf="http://www.w3.org/1999/02/22-rdf-syntax-ns#"
   xmlns:svg="http://www.w3.org/2000/svg"
   xmlns="http://www.w3.org/2000/svg"
   xmlns:sodipodi="http://sodipodi.sourceforge.net/DTD/sodipodi-0.dtd"
   xmlns:inkscape="http://www.inkscape.org/namespaces/inkscape"
   version="1.1"
   width="24"
   height="24"
   viewBox="0 0 24 24"
   id="svg193"
   sodipodi:docname="variable-add.svg"
   inkscape:version="1.0.2 (e86c870879, 2021-01-15, custom)">
  <metadata
     id="metadata199">
    <rdf:RDF>
      <cc:Work
         rdf:about="">
        <dc:format>image/svg+xml</dc:format>
        <dc:type
           rdf:resource="http://purl.org/dc/dcmitype/StillImage" />
        <dc:title></dc:title>
      </cc:Work>
    </rdf:RDF>
  </metadata>
  <defs
     id="defs197" />
  <sodipodi:namedview
     pagecolor="#ffffff"
     bordercolor="#666666"
     borderopacity="1"
     objecttolerance="10"
     gridtolerance="10"
     guidetolerance="10"
     inkscape:pageopacity="0"
     inkscape:pageshadow="2"
     inkscape:window-width="1920"
     inkscape:window-height="1010"
     id="namedview195"
     showgrid="false"
     inkscape:zoom="6.2240128"
     inkscape:cx="12"
     inkscape:cy="12"
     inkscape:window-x="-7"
     inkscape:window-y="-7"
     inkscape:window-maximized="1"
     inkscape:current-layer="svg193" />
  <path
     id="path191"
     d="M 5.1699219 3 C 3.2999219 5.71 2.2 8.84 2 12 C 1.65 15.17 2.209375 18.29 3.609375 21 L 5.3007812 20 C 4.1207813 17.57 3.66 14.8 4 12 C 4.15 9.2 5.0892187 6.43 6.6992188 4 L 5.1699219 3 z M 20.410156 3 L 18.699219 4 C 19.889219 6.43 20.34 9.2 20 12 C 19.977839 12.413667 19.933213 12.826923 19.876953 13.238281 A 5.9360948 5.9360948 0 0 1 21.759766 13.908203 C 21.872691 13.275039 21.959567 12.638839 22 12 C 22.35 8.84 21.800156 5.71 20.410156 3 z M 8.5292969 7.4492188 L 10.660156 12.210938 L 6.7597656 17.330078 L 9.2792969 17.330078 L 11.710938 14 L 13.089844 17.369141 L 13.177734 17.369141 A 5.9360948 5.9360948 0 0 1 14.376953 15.195312 L 13.150391 12.449219 L 16.929688 7.4492188 L 14.400391 7.4492188 L 12.080078 10.679688 L 10.800781 7.4492188 L 8.5292969 7.4492188 z " />
  <path
     id="rect101"
     style="fill:#000000"
     d="m 17.64083,14.943196 v 3 h -3 v 1.999999 h 3 v 3 h 2 v -3 h 3 v -1.999999 h -3 v -3 z" />
</svg>
