<?xml version="1.0" encoding="UTF-8" standalone="no"?>
<svg
   xmlns:dc="http://purl.org/dc/elements/1.1/"
   xmlns:cc="http://creativecommons.org/ns#"
   xmlns:rdf="http://www.w3.org/1999/02/22-rdf-syntax-ns#"
   xmlns:svg="http://www.w3.org/2000/svg"
   xmlns="http://www.w3.org/2000/svg"
   xmlns:sodipodi="http://sodipodi.sourceforge.net/DTD/sodipodi-0.dtd"
   xmlns:inkscape="http://www.inkscape.org/namespaces/inkscape"
   version="1.1"
   width="24"
   height="24"
   viewBox="0 0 24 24"
   id="svg907"
   sodipodi:docname="composite-open3.svg"
   inkscape:version="0.92.4 (5da689c313, 2019-01-14)">
  <metadata
     id="metadata913">
    <rdf:RDF>
      <cc:Work
         rdf:about="">
        <dc:format>image/svg+xml</dc:format>
        <dc:type
           rdf:resource="http://purl.org/dc/dcmitype/StillImage" />
        <dc:title></dc:title>
      </cc:Work>
    </rdf:RDF>
  </metadata>
  <defs
     id="defs911" />
  <sodipodi:namedview
     pagecolor="#ffffff"
     bordercolor="#666666"
     borderopacity="1"
     objecttolerance="10"
     gridtolerance="10"
     guidetolerance="10"
     inkscape:pageopacity="0"
     inkscape:pageshadow="2"
     inkscape:window-width="1680"
     inkscape:window-height="1019"
     id="namedview909"
     showgrid="false"
     inkscape:zoom="8.8020836"
     inkscape:cx="11.51716"
     inkscape:cy="12"
     inkscape:window-x="2560"
     inkscape:window-y="0"
     inkscape:window-maximized="1"
     inkscape:current-layer="svg907" />
  <path
     d="M 15.272805,3.8097776 C 14.465129,2.8275976 13.375932,2.0078708 12.130787,1.5692469 9.9459033,0.79958588 7.9827161,1.4292191 7.1730451,2.9710015 L 8.2519118,3.6911614 C 8.8680417,2.5172382 10.366544,2.0378602 12.034574,2.6254515 12.950811,2.9482119 13.759467,3.5470213 14.367937,4.267173 L 12.527699,5.1973776 16.7565,6.6870459 17.10287,2.8847057 Z"
     id="path1233"
     style="stroke-width:0.452637" />
  <path
     d="m 20.819946,6.8402367 c 1.108779,0 1.997802,0.8990103 1.997802,1.9978006 V 20.824841 a 1.9978006,1.9978006 0 0 1 -1.997802,1.9978 H 6.8353458 c -1.1087791,0 -1.9978003,-0.89901 -1.9978003,-1.9978 V 8.8380373 A 1.9978006,1.9978006 0 0 1 6.8353458,6.8402367 H 20.819946 m 0,13.9846043 V 10.835838 H 6.8353458 v 9.989003 z"
     id="path905"
     style="stroke-width:0.9989" />
  <path
     d="m 6.3887308,1.2767847 c 0.3748166,0 0.6753454,0.303906 0.6753454,0.675346 v 4.052071 A 0.67534519,0.67534519 0 0 1 6.3887308,6.6795467 H 1.6613144 c -0.3748165,0 -0.67534505,-0.303905 -0.67534505,-0.675345 V 1.9521307 A 0.67534519,0.67534519 0 0 1 1.6613144,1.2767847 h 4.7274164 m 0,4.727417 V 2.6274757 H 1.6613144 v 3.376726 z"
     id="path905-1"
     style="stroke-width:0.337673" />
</svg>
