<?xml version="1.0" encoding="UTF-8" standalone="no"?>
<svg
   xmlns:dc="http://purl.org/dc/elements/1.1/"
   xmlns:cc="http://creativecommons.org/ns#"
   xmlns:rdf="http://www.w3.org/1999/02/22-rdf-syntax-ns#"
   xmlns:svg="http://www.w3.org/2000/svg"
   xmlns="http://www.w3.org/2000/svg"
   xmlns:sodipodi="http://sodipodi.sourceforge.net/DTD/sodipodi-0.dtd"
   xmlns:inkscape="http://www.inkscape.org/namespaces/inkscape"
   version="1.1"
   width="24"
   height="24"
   viewBox="0 0 24 24"
   id="svg1881"
   sodipodi:docname="composite-2.svg"
   inkscape:version="1.0.2 (e86c870879, 2021-01-15, custom)">
  <metadata
     id="metadata1887">
    <rdf:RDF>
      <cc:Work
         rdf:about="">
        <dc:format>image/svg+xml</dc:format>
        <dc:type
           rdf:resource="http://purl.org/dc/dcmitype/StillImage" />
        <dc:title></dc:title>
      </cc:Work>
    </rdf:RDF>
  </metadata>
  <defs
     id="defs1885" />
  <sodipodi:namedview
     pagecolor="#ffffff"
     bordercolor="#666666"
     borderopacity="1"
     objecttolerance="10"
     gridtolerance="10"
     guidetolerance="10"
     inkscape:pageopacity="0"
     inkscape:pageshadow="2"
     inkscape:window-width="1920"
     inkscape:window-height="1010"
     id="namedview1883"
     showgrid="false"
     inkscape:zoom="8.8020833"
     inkscape:cx="12"
     inkscape:cy="12"
     inkscape:window-x="-7"
     inkscape:window-y="-7"
     inkscape:window-maximized="1"
     inkscape:current-layer="svg1881" />
  <path
     d="M19,4C20.11,4 21,4.9 21,6V18A2,2 0 0,1 19,20H5C3.89,20 3,19.1 3,18V6A2,2 0 0,1 5,4H19M19,18V8H5V18H19Z"
     id="path1879" />
  <path
     d="M 5.6562942,8.6660028 V 14.068527 H 11.923166 V 8.6660028 H 5.6562942 M 11.139807,13.237369 H 6.4396532 V 9.4971603 h 4.7001538 z"
     id="path1859"
     style="stroke-width:0;stroke-miterlimit:4;stroke-dasharray:none;paint-order:normal" />
  <path
     d="m 15.424132,16.643941 a 2.3444845,2.3444845 0 0 1 -2.344484,-2.344484 2.3444845,2.3444845 0 0 1 2.344484,-2.344485 2.3444845,2.3444845 0 0 1 2.344485,2.344485 2.3444845,2.3444845 0 0 1 -2.344485,2.344484 m 0,-5.27509 a 2.9306056,2.9306056 0 0 0 -2.930605,2.930606 2.9306056,2.9306056 0 0 0 2.930605,2.930605 2.9306056,2.9306056 0 0 0 2.930606,-2.930605 2.9306056,2.9306056 0 0 0 -2.930606,-2.930606 z"
     id="path2500"
     style="stroke-width:0.293061" />
</svg>
