<?xml version="1.0" encoding="UTF-8" standalone="no"?>
<svg
   xmlns:dc="http://purl.org/dc/elements/1.1/"
   xmlns:cc="http://creativecommons.org/ns#"
   xmlns:rdf="http://www.w3.org/1999/02/22-rdf-syntax-ns#"
   xmlns:svg="http://www.w3.org/2000/svg"
   xmlns="http://www.w3.org/2000/svg"
   xmlns:sodipodi="http://sodipodi.sourceforge.net/DTD/sodipodi-0.dtd"
   xmlns:inkscape="http://www.inkscape.org/namespaces/inkscape"
   version="1.1"
   width="24"
   height="24"
   viewBox="0 0 24 24"
   id="svg6578"
   sodipodi:docname="component-recursive.svg"
   inkscape:version="0.92.4 (5da689c313, 2019-01-14)">
  <metadata
     id="metadata6584">
    <rdf:RDF>
      <cc:Work
         rdf:about="">
        <dc:format>image/svg+xml</dc:format>
        <dc:type
           rdf:resource="http://purl.org/dc/dcmitype/StillImage" />
        <dc:title></dc:title>
      </cc:Work>
    </rdf:RDF>
  </metadata>
  <defs
     id="defs6582" />
  <sodipodi:namedview
     pagecolor="#ffffff"
     bordercolor="#666666"
     borderopacity="1"
     objecttolerance="10"
     gridtolerance="10"
     guidetolerance="10"
     inkscape:pageopacity="0"
     inkscape:pageshadow="2"
     inkscape:window-width="2560"
     inkscape:window-height="1358"
     id="namedview6580"
     showgrid="false"
     inkscape:zoom="2.4583333"
     inkscape:cx="12"
     inkscape:cy="12"
     inkscape:window-x="0"
     inkscape:window-y="26"
     inkscape:window-maximized="1"
     inkscape:current-layer="svg6578" />
  <path
     d="M19,4C20.11,4 21,4.9 21,6V18A2,2 0 0,1 19,20H5C3.89,20 3,19.1 3,18V6A2,2 0 0,1 5,4H19M19,18V8H5V18H19Z"
     id="path6576" />
  <path
     id="path6640"
     d="M 6.6949151,9.2118643 V 17.025424 H 17.293351 V 9.2118643 H 6.6949151 M 15.968547,15.823338 H 8.0197195 v -5.409387 h 7.9488275 z"
     inkscape:connector-curvature="0"
     style="stroke-width:0.63097715" />
  <path
     id="path6640-3"
     d="m 9.2940028,11.194915 v 3.79661 h 5.1497812 v -3.79661 H 9.2940028 m 4.5060592,3.212516 H 9.9377253 v -2.628422 h 3.8623367 z"
     inkscape:connector-curvature="0"
     style="stroke-width:0.30659193" />
</svg>
