<?xml version="1.0" encoding="UTF-8" standalone="no"?>
<svg
   xmlns:dc="http://purl.org/dc/elements/1.1/"
   xmlns:cc="http://creativecommons.org/ns#"
   xmlns:rdf="http://www.w3.org/1999/02/22-rdf-syntax-ns#"
   xmlns:svg="http://www.w3.org/2000/svg"
   xmlns="http://www.w3.org/2000/svg"
   xmlns:sodipodi="http://sodipodi.sourceforge.net/DTD/sodipodi-0.dtd"
   xmlns:inkscape="http://www.inkscape.org/namespaces/inkscape"
   version="1.1"
   width="24"
   height="24"
   viewBox="0 0 24 24"
   id="svg6742"
   sodipodi:docname="composite-open-src.svg"
   inkscape:version="0.92.4 (5da689c313, 2019-01-14)">
  <metadata
     id="metadata6748">
    <rdf:RDF>
      <cc:Work
         rdf:about="">
        <dc:format>image/svg+xml</dc:format>
        <dc:type
           rdf:resource="http://purl.org/dc/dcmitype/StillImage" />
        <dc:title></dc:title>
      </cc:Work>
    </rdf:RDF>
  </metadata>
  <defs
     id="defs6746" />
  <sodipodi:namedview
     pagecolor="#ffffff"
     bordercolor="#666666"
     borderopacity="1"
     objecttolerance="10"
     gridtolerance="10"
     guidetolerance="10"
     inkscape:pageopacity="0"
     inkscape:pageshadow="2"
     inkscape:window-width="2560"
     inkscape:window-height="1358"
     id="namedview6744"
     showgrid="false"
     inkscape:zoom="19.666667"
     inkscape:cx="12"
     inkscape:cy="12"
     inkscape:window-x="0"
     inkscape:window-y="26"
     inkscape:window-maximized="1"
     inkscape:current-layer="svg6742" />
  <path
     d="M 5 4 A 2 2 0 0 0 3 6 L 3 13.830078 L 5 13.830078 L 5 8 L 19 8 L 19 18 L 10.914062 18 L 10.914062 20 L 19 20 A 2 2 0 0 0 21 18 L 21 6 C 21 4.9 20.11 4 19 4 L 5 4 z "
     id="path6740" />
  <path
     style="stroke-width:0.38347456"
     d="M 3.2617188 15.644531 A 0.76694915 0.76694915 0 0 0 2.4941406 16.410156 L 2.4941406 21.013672 C 2.4941406 21.435494 2.8360621 21.779297 3.2617188 21.779297 L 8.6289062 21.779297 A 0.76694915 0.76694915 0 0 0 9.3964844 21.013672 L 9.3964844 16.410156 C 9.3964844 15.988333 9.0545629 15.644531 8.6289062 15.644531 L 7.4003906 15.644531 L 7.4003906 17.177734 L 8.6289062 17.177734 L 8.6289062 21.013672 L 3.2617188 21.013672 L 3.2617188 17.177734 L 4.5 17.177734 L 4.5 15.644531 L 3.2617188 15.644531 z "
     id="path6859" />
  <path
     id="path6800"
     d="m 12.31819,12.720011 c -1.176715,-0.443463 -2.5122538,-0.499772 -3.7908378,-0.02921 -2.2435539,0.825717 -3.6016707,2.98551 -3.5234661,5.252171 l 1.277171,-0.04274 c -0.059851,-1.725578 0.9774081,-3.372839 2.6902289,-4.003224 0.9408452,-0.34627 1.927522,-0.31496 2.804161,-0.0021 l -1.103777,2.389411 4.342361,-1.598161 -1.598162,-4.342363 z"
     inkscape:connector-curvature="0"
     style="stroke-width:0.51412427" />
</svg>
