<?xml version="1.0" encoding="UTF-8" standalone="no"?>
<svg
   xmlns:dc="http://purl.org/dc/elements/1.1/"
   xmlns:cc="http://creativecommons.org/ns#"
   xmlns:rdf="http://www.w3.org/1999/02/22-rdf-syntax-ns#"
   xmlns:svg="http://www.w3.org/2000/svg"
   xmlns="http://www.w3.org/2000/svg"
   xmlns:sodipodi="http://sodipodi.sourceforge.net/DTD/sodipodi-0.dtd"
   xmlns:inkscape="http://www.inkscape.org/namespaces/inkscape"
   version="1.1"
   width="24"
   height="24"
   viewBox="0 0 24 24"
   id="svg1162"
   sodipodi:docname="connector-cross.svg"
   inkscape:version="1.0.2 (e86c870879, 2021-01-15, custom)">
  <metadata
     id="metadata1168">
    <rdf:RDF>
      <cc:Work
         rdf:about="">
        <dc:format>image/svg+xml</dc:format>
        <dc:type
           rdf:resource="http://purl.org/dc/dcmitype/StillImage" />
        <dc:title></dc:title>
      </cc:Work>
    </rdf:RDF>
  </metadata>
  <defs
     id="defs1166" />
  <sodipodi:namedview
     pagecolor="#ffffff"
     bordercolor="#666666"
     borderopacity="1"
     objecttolerance="10"
     gridtolerance="10"
     guidetolerance="10"
     inkscape:pageopacity="0"
     inkscape:pageshadow="2"
     inkscape:window-width="1920"
     inkscape:window-height="1010"
     id="namedview1164"
     showgrid="false"
     inkscape:zoom="1.5560032"
     inkscape:cx="12"
     inkscape:cy="12"
     inkscape:window-x="-7"
     inkscape:window-y="-7"
     inkscape:window-maximized="1"
     inkscape:current-layer="svg1162"
     inkscape:document-rotation="0" />
  <path
     d="M11,19A6,6 0 0,0 17,13H19A8,8 0 0,1 11,21A8,8 0 0,1 3,13A8,8 0 0,1 11,5V7A6,6 0 0,0 5,13A6,6 0 0,0 11,19M19,5H22V7H19V10H17V7H14V5H17V2H19V5Z"
     id="path1160" />
  <rect
     style="fill:#ffffff;stroke-width:2.07534"
     id="rect1265"
     width="8.6368589"
     height="8.6185217"
     x="13.687403"
     y="1.3791118" />
  <path
     d="M 21.212819,4.1998028 20.506508,3.4934918 17.706311,6.29369 14.906112,3.4934918 14.199801,4.1998028 17,7 l -2.800199,2.8002 0.706311,0.706311 2.800199,-2.8002 2.800197,2.8002 L 21.212819,9.8002 18.412621,7 Z"
     id="path41"
     style="stroke-width:0.50093" />
</svg>
