<?xml version="1.0" encoding="UTF-8" standalone="no"?>
<svg
   xmlns:dc="http://purl.org/dc/elements/1.1/"
   xmlns:cc="http://creativecommons.org/ns#"
   xmlns:rdf="http://www.w3.org/1999/02/22-rdf-syntax-ns#"
   xmlns:svg="http://www.w3.org/2000/svg"
   xmlns="http://www.w3.org/2000/svg"
   xmlns:sodipodi="http://sodipodi.sourceforge.net/DTD/sodipodi-0.dtd"
   xmlns:inkscape="http://www.inkscape.org/namespaces/inkscape"
   version="1.1"
   width="24"
   height="24"
   viewBox="0 0 24 24"
   id="svg3886"
   sodipodi:docname="connector-unknown.svg"
   inkscape:version="0.92.4 (5da689c313, 2019-01-14)">
  <metadata
     id="metadata3892">
    <rdf:RDF>
      <cc:Work
         rdf:about="">
        <dc:format>image/svg+xml</dc:format>
        <dc:type
           rdf:resource="http://purl.org/dc/dcmitype/StillImage" />
        <dc:title />
      </cc:Work>
    </rdf:RDF>
  </metadata>
  <defs
     id="defs3890" />
  <sodipodi:namedview
     pagecolor="#ffffff"
     bordercolor="#666666"
     borderopacity="1"
     objecttolerance="10"
     gridtolerance="10"
     guidetolerance="10"
     inkscape:pageopacity="0"
     inkscape:pageshadow="2"
     inkscape:window-width="2560"
     inkscape:window-height="1358"
     id="namedview3888"
     showgrid="false"
     inkscape:zoom="8.6473268"
     inkscape:cx="24.142969"
     inkscape:cy="12"
     inkscape:window-x="0"
     inkscape:window-y="26"
     inkscape:window-maximized="1"
     inkscape:current-layer="svg3886" />
  <path
     d="M12,20A8,8 0 0,1 4,12A8,8 0 0,1 12,4A8,8 0 0,1 20,12A8,8 0 0,1 12,20M12,2A10,10 0 0,0 2,12A10,10 0 0,0 12,22A10,10 0 0,0 22,12A10,10 0 0,0 12,2Z"
     id="path3884" />
  <g
     aria-label="?"
     style="font-style:normal;font-weight:normal;font-size:14.73493004px;line-height:1.25;font-family:sans-serif;letter-spacing:0px;word-spacing:0px;fill:#000000;fill-opacity:1;stroke:none;stroke-width:0.36837322"
     id="text3896">
    <path
       d="m 11.188694,15.596985 h 1.460542 v 1.827476 h -1.460542 z m 1.417374,-1.057634 h -1.374205 v -1.107998 q 0,-0.726674 0.201454,-1.194335 0.201454,-0.467662 0.848985,-1.086414 l 0.647531,-0.640336 q 0.410103,-0.381324 0.589973,-0.7194789 0.187065,-0.3381551 0.187065,-0.6906998 0,-0.6403363 -0.474857,-1.0360498 -0.467661,-0.3957135 -1.244698,-0.3957135 -0.568389,0 -1.21592,0.2518177 Q 10.13106,8.1719614 9.4331653,8.6540123 V 7.3013918 Q 10.109476,6.8912887 10.800175,6.6898346 11.49807,6.4883805 12.239133,6.4883805 q 1.323842,0 2.122464,0.6978946 0.805816,0.6978946 0.805816,1.8418663 0,0.546804 -0.259012,1.0432446 -0.259013,0.489246 -0.906544,1.107998 l -0.633142,0.618752 q -0.338155,0.338155 -0.48205,0.532414 -0.136701,0.187065 -0.19426,0.366934 -0.04317,0.151091 -0.06475,0.366935 -0.02158,0.215843 -0.02158,0.589972 z"
       style="stroke-width:0.36837322"
       id="path355" />
  </g>
</svg>
