<?xml version="1.0" encoding="UTF-8" standalone="no"?>
<svg
   xmlns:dc="http://purl.org/dc/elements/1.1/"
   xmlns:cc="http://creativecommons.org/ns#"
   xmlns:rdf="http://www.w3.org/1999/02/22-rdf-syntax-ns#"
   xmlns:svg="http://www.w3.org/2000/svg"
   xmlns="http://www.w3.org/2000/svg"
   xmlns:sodipodi="http://sodipodi.sourceforge.net/DTD/sodipodi-0.dtd"
   xmlns:inkscape="http://www.inkscape.org/namespaces/inkscape"
   version="1.1"
   width="24"
   height="24"
   viewBox="0 0 24 24"
   id="svg3886"
   sodipodi:docname="connector-lb2.svg"
   inkscape:version="0.92.4 (5da689c313, 2019-01-14)">
  <metadata
     id="metadata3892">
    <rdf:RDF>
      <cc:Work
         rdf:about="">
        <dc:format>image/svg+xml</dc:format>
        <dc:type
           rdf:resource="http://purl.org/dc/dcmitype/StillImage" />
        <dc:title></dc:title>
      </cc:Work>
    </rdf:RDF>
  </metadata>
  <defs
     id="defs3890" />
  <sodipodi:namedview
     pagecolor="#ffffff"
     bordercolor="#666666"
     borderopacity="1"
     objecttolerance="10"
     gridtolerance="10"
     guidetolerance="10"
     inkscape:pageopacity="0"
     inkscape:pageshadow="2"
     inkscape:window-width="2560"
     inkscape:window-height="1358"
     id="namedview3888"
     showgrid="false"
     inkscape:zoom="12.229167"
     inkscape:cx="12"
     inkscape:cy="12"
     inkscape:window-x="0"
     inkscape:window-y="26"
     inkscape:window-maximized="1"
     inkscape:current-layer="svg3886" />
  <path
     d="M12,20A8,8 0 0,1 4,12A8,8 0 0,1 12,4A8,8 0 0,1 20,12A8,8 0 0,1 12,20M12,2A10,10 0 0,0 2,12A10,10 0 0,0 12,22A10,10 0 0,0 22,12A10,10 0 0,0 12,2Z"
     id="path3884" />
  <g
     aria-label="LB"
     style="font-style:normal;font-weight:normal;font-size:9.33519745px;line-height:1.25;font-family:sans-serif;letter-spacing:0px;word-spacing:0px;fill:#000000;fill-opacity:1;stroke:none;stroke-width:0.23337993"
     id="text3896">
    <path
       d="M 6.9697989,8.6665151 H 7.8905557 V 14.697016 H 11.204368 V 15.47191 H 6.9697989 Z"
       style="stroke-width:0.23337993"
       id="path62" />
    <path
       d="m 13.086906,12.221913 v 2.493336 h 1.476857 q 0.742987,0 1.098527,-0.3054 0.360098,-0.309957 0.360098,-0.943547 0,-0.638149 -0.360098,-0.93899 -0.35554,-0.305399 -1.098527,-0.305399 z m 0,-2.7987364 v 2.0511904 h 1.362902 q 0.674614,0 1.002805,-0.250701 0.332748,-0.255259 0.332748,-0.774894 0,-0.5150768 -0.332748,-0.7703361 Q 15.124422,9.4231766 14.449808,9.4231766 Z M 12.166149,8.6665151 h 2.352032 q 1.052945,0 1.62272,0.4375874 0.569775,0.4375873 0.569775,1.2443895 0,0.624473 -0.291725,0.993688 -0.291725,0.369214 -0.856942,0.460378 0.679172,0.145862 1.052945,0.610799 0.378331,0.460378 0.378331,1.153225 0,0.91164 -0.619916,1.408484 -0.619915,0.496844 -1.764024,0.496844 h -2.443196 z"
       style="stroke-width:0.23337993"
       id="path64" />
  </g>
</svg>
